PathFileType	4	(X/Y/Z)	/Users/itak/Documents/Research/Walk-IL/dataset/trc/00212_00009.trc
DataRate	CameraRate	NumFrames	NumMarkers	Units	OrigDataRate	OrigDataStartFrame	OrigNumFrames
100.000000	100.000000	4	53	mm	100.000000	201	538
Frame#	Time	RPSI			LPSI			L3			STRN			T10			C7			CLAV			RBAK			LBAK			LSHO			LUPA			LAEL			LAOL			LWTS			LWPS			LFRA			LIFD			LHPS			RSHO			RUPA			RAEL			RAOL			RWTS			RWPS			RFRA			RIFD			RHTS			RHPS			RBHD			LFHD			RFHD			LBHD			LHIP			RHIP			RASI			LASI			LKNE			LTHI			LANK			LTIP			LTOE			LMT1			LMT5			LHEE			RKNE			RTHI			RANK			RTIP			RTOE			RMT1			RMT5			RHEE			LHTS			
		X1	Y1	Z1	X2	Y2	Z2	X3	Y3	Z3	X4	Y4	Z4	X5	Y5	Z5	X6	Y6	Z6	X7	Y7	Z7	X8	Y8	Z8	X9	Y9	Z9	X10	Y10	Z10	X11	Y11	Z11	X12	Y12	Z12	X13	Y13	Z13	X14	Y14	Z14	X15	Y15	Z15	X16	Y16	Z16	X17	Y17	Z17	X18	Y18	Z18	X19	Y19	Z19	X20	Y20	Z20	X21	Y21	Z21	X22	Y22	Z22	X23	Y23	Z23	X24	Y24	Z24	X25	Y25	Z25	X26	Y26	Z26	X27	Y27	Z27	X28	Y28	Z28	X29	Y29	Z29	X30	Y30	Z30	X31	Y31	Z31	X32	Y32	Z32	X33	Y33	Z33	X34	Y34	Z34	X35	Y35	Z35	X36	Y36	Z36	X37	Y37	Z37	X38	Y38	Z38	X39	Y39	Z39	X40	Y40	Z40	X41	Y41	Z41	X42	Y42	Z42	X43	Y43	Z43	X44	Y44	Z44	X45	Y45	Z45	X46	Y46	Z46	X47	Y47	Z47	X48	Y48	Z48	X49	Y49	Z49	X50	Y50	Z50	X51	Y51	Z51	X52	Y52	Z52	X53	Y53	Z53	

202	2.01	-1566.974365234375	1016.788452148438	-272.2736511230469	-1554.48681640625	1018.966003417969	-391.35595703125	-1556.01171875	1105.203491210938	-340.8880920410156	-1294.06201171875	1277.527954101562	-329.7085266113281	-1556.263427734375	1229.726928710938	-329.6386108398438	-1475.849243164062	1486.619995117188	-332.11376953125	-1313.0478515625	1397.338134765625	-330.3817443847656	-1562.564453125	1355.200317382812	-256.8600158691406	-1498.8291015625	1450.363647460938	-440.9120178222656	-1410.824340820312	1450.070434570312	-500.0623474121094	-1457.14794921875	1334.74072265625	-575.3339233398438	-1479.110961914062	1128.00830078125	-607.452392578125	-1545.848876953125	1120.7705078125	-550.9915161132812	-1422.3515625	881.4044189453125	-569.5747680664062	-1459.327270507812	873.0599365234375	-644.712890625	-1476.829223632812	1020.063354492188	-626.9518432617188	-1450.651123046875	687.4304809570312	-585.7760620117188	-1457.554931640625	782.9083251953125	-645.6508178710938	-1421.354248046875	1448.289428710938	-162.1238250732422	-1446.65869140625	1386.609130859375	-93.57675170898438	-1483.683837890625	1107.507568359375	-48.95493316650391	-1524.936767578125	1104.679931640625	-135.1695709228516	-1361.947998046875	889.0498657226562	-115.6325912475586	-1407.336669921875	873.8714599609375	-44.41085052490234	-1458.618041992188	1036.724487304688	-41.3056526184082	-1351.576538085938	693.1133422851562	-122.6264724731445	-1325.0693359375	765.9832153320312	-106.2034378051758	-1372.977661132812	766.0018920898438	-51.5576286315918	-1446.295166015625	1626.108764648438	-287.9606018066406	-1245.576538085938	1686.790161132812	-376.8369445800781	-1249.467041015625	1687.12890625	-277.1460266113281	-1396.923583984375	1635.508911132812	-418.7023620605469	-1426.2451171875	962.7344360351562	-511.0257568359375	-1491.003540039062	972.5558471679688	-149.5832061767578	-1386.530883789062	1011.189819335938	-173.0889587402344	-1339.042724609375	998.7891845703125	-444.7513732910156	-1219.109130859375	520.8543701171875	-434.0045166015625	-1281.051391601562	649.6275024414062	-476.4381713867188	-1279.757568359375	39.65494537353516	-416.4500732421875	-1247.227661132812	285.8297119140625	-434.9216918945312	-1068.263305664062	45.6877555847168	-351.6309204101562	-1138.612060546875	40.40238571166992	-311.11865234375	-1152.353271484375	38.3488655090332	-427.3788146972656	-1343.135498046875	48.40364074707031	-367.2825317382812	-1591.665649414062	503.8760986328125	-187.2327880859375	-1481.724243164062	749.1795654296875	-139.6680603027344	-1893.447998046875	95.37169647216797	-244.6831817626953	-1641.525268554688	392.2499389648438	-207.0537567138672	-1702.77587890625	46.15507888793945	-274.4130859375	-1741.69873046875	58.2632942199707	-317.3830871582031	-1802.276123046875	40.54921340942383	-213.446044921875	-1938.016479492188	138.7720336914062	-305.4278869628906	-1408.937866210938	777.5097045898438	-597.347412109375	
203	2.02	-1556.264892578125	1017.791137695312	-273.4551696777344	-1543.712036132812	1020.581359863281	-392.4724731445312	-1545.372436523438	1106.623657226562	-342.3185729980469	-1283.854248046875	1279.650390625	-329.9611206054688	-1545.8388671875	1231.185302734375	-331.06298828125	-1466.268188476562	1488.238037109375	-333.3216247558594	-1303.220947265625	1399.427856445312	-330.7055053710938	-1552.865600585938	1356.635620117188	-258.4478759765625	-1488.6279296875	1451.962036132812	-442.2675170898438	-1400.270751953125	1451.881469726562	-500.8538208007812	-1445.051635742188	1336.269165039062	-576.5299072265625	-1464.315307617188	1129.087036132812	-608.7427368164062	-1531.657836914062	1121.142333984375	-553.1181030273438	-1404.395751953125	883.49072265625	-569.5662231445312	-1440.433471679688	874.3645629882812	-645.1151733398438	-1460.301025390625	1021.134521484375	-627.9427490234375	-1429.28173828125	689.002197265625	-585.7117919921875	-1437.098876953125	784.2655029296875	-645.8140258789062	-1412.438354492188	1450.182495117188	-163.0330505371094	-1437.984985351562	1388.529296875	-94.62800598144531	-1475.937377929688	1109.780151367188	-49.71299743652344	-1516.442138671875	1106.8486328125	-136.2950286865234	-1355.257690429688	890.0231323242188	-114.2136001586914	-1401.30126953125	875.7640380859375	-43.20246505737305	-1451.416381835938	1038.972900390625	-41.48248672485352	-1346.795654296875	693.8862915039062	-119.7897872924805	-1319.590209960938	766.6560668945312	-103.6467132568359	-1367.889770507812	767.5133666992188	-49.33558654785156	-1436.831665039062	1627.883666992188	-288.4047546386719	-1236.245239257812	1688.78759765625	-377.3707580566406	-1240.028198242188	1689.010986328125	-277.6599731445312	-1387.556030273438	1637.448486328125	-419.1605834960938	-1415.511474609375	964.7918701171875	-512.2861938476562	-1480.191772460938	973.5408325195312	-150.9394378662109	-1375.561889648438	1012.287353515625	-174.5502471923828	-1328.275146484375	1000.919311523438	-445.8170471191406	-1213.400390625	520.1331176757812	-434.4781494140625	-1273.516357421875	649.7337646484375	-477.1207275390625	-1279.547729492188	39.70824432373047	-416.5691223144531	-1244.137329101562	285.4054565429688	-435.1915893554688	-1068.076782226562	45.22586441040039	-351.2740478515625	-1138.59375	40.16804122924805	-310.7559814453125	-1152.235473632812	38.49530029296875	-427.3504333496094	-1343.007568359375	48.5272102355957	-367.5201721191406	-1575.378173828125	503.0642700195312	-185.8449859619141	-1468.955200195312	750.0784301757812	-140.7728576660156	-1888.496704101562	102.8677520751953	-242.6923065185547	-1626.863891601562	391.7801208496094	-205.2666320800781	-1702.487915039062	45.8314094543457	-274.2364196777344	-1740.122680664062	59.45471572875977	-316.9088439941406	-1800.235473632812	42.84725952148438	-212.646240234375	-1930.727172851562	148.7747802734375	-302.9130554199219	-1388.957641601562	779.8031616210938	-596.95947265625	
204	2.03	-1545.763916015625	1018.858764648438	-274.6382141113281	-1533.055908203125	1022.3017578125	-393.5731811523438	-1534.818603515625	1108.142822265625	-343.8038330078125	-1273.6865234375	1281.871215820312	-330.1317138671875	-1535.493530273438	1232.75830078125	-332.5807800292969	-1456.731567382812	1489.947998046875	-334.5570678710938	-1293.432495117188	1401.60205078125	-330.964599609375	-1543.24560546875	1358.177734375	-260.1109313964844	-1478.406372070312	1453.662475585938	-443.6571350097656	-1389.671875	1453.799194335938	-501.6217651367188	-1432.865234375	1337.94287109375	-577.742919921875	-1449.356079101562	1130.346435546875	-610.0765380859375	-1517.342163085938	1121.656127929688	-555.37060546875	-1386.176147460938	885.8444213867188	-569.4742431640625	-1421.162475585938	875.9212036132812	-645.45654296875	-1443.511840820312	1022.405456542969	-628.944580078125	-1407.454833984375	690.8796997070312	-585.5060424804688	-1416.170654296875	785.90185546875	-645.870361328125	-1403.661743164062	1452.184936523438	-163.9547729492188	-1429.464477539062	1390.560791015625	-95.70471954345703	-1468.261840820312	1112.164916992188	-50.50838470458984	-1507.995971679688	1109.101684570312	-137.4466552734375	-1348.554077148438	891.1979370117188	-112.7951583862305	-1395.235717773438	877.8253173828125	-42.04620361328125	-1444.265747070312	1041.35693359375	-41.6907958984375	-1341.967895507812	694.8759155273438	-116.9787750244141	-1314.089233398438	767.5335083007812	-101.1155776977539	-1362.75927734375	769.2382202148438	-47.13362503051758	-1427.390502929688	1629.7744140625	-288.8232727050781	-1226.91455078125	1690.826049804688	-377.88330078125	-1230.58447265625	1690.942504882812	-278.1543273925781	-1378.211181640625	1639.481689453125	-419.5940551757812	-1404.954345703125	966.8833618164062	-513.5428466796875	-1469.553833007812	974.558837890625	-152.2899627685547	-1364.769653320312	1013.480407714844	-176.0804443359375	-1317.6669921875	1003.069702148438	-446.8867492675781	-1208.260498046875	519.3738403320312	-435.0265197753906	-1266.458740234375	649.8056640625	-477.8766479492188	-1279.40185546875	39.69811248779297	-416.70947265625	-1241.48388671875	284.9727172851562	-435.5306701660156	-1068.003051757812	44.98298645019531	-350.9873962402344	-1138.631591796875	40.04514694213867	-310.4465026855469	-1152.171630859375	38.62922286987305	-427.3270874023438	-1342.908203125	48.56616973876953	-367.7583923339844	-1558.051879882812	501.9354858398438	-184.2794189453125	-1455.914306640625	750.8992309570312	-141.8992309570312	-1882.57373046875	111.0410690307617	-240.5460052490234	-1611.029296875	391.0377807617188	-203.3687591552734	-1701.693603515625	45.55329132080078	-273.9159851074219	-1738.09716796875	60.94097900390625	-316.3515930175781	-1797.590087890625	45.87094116210938	-211.6557769775391	-1922.311645507812	159.3226013183594	-300.2091064453125	-1368.56982421875	782.4283447265625	-596.4193725585938	
205	2.04	-1535.502807617188	1019.958923339844	-275.8024597167969	-1522.556518554688	1024.095336914062	-394.6390075683594	-1524.370971679688	1109.733032226562	-345.3170166015625	-1263.575439453125	1284.149536132812	-330.212890625	-1525.2490234375	1234.418212890625	-334.1870422363281	-1447.240234375	1491.718627929688	-335.8143310546875	-1283.692260742188	1403.816284179688	-331.1517028808594	-1533.713134765625	1359.800170898438	-261.8423767089844	-1468.162963867188	1455.434448242188	-445.0747985839844	-1379.0234375	1455.786865234375	-502.35595703125	-1420.5888671875	1339.726928710938	-578.9608764648438	-1434.250732421875	1131.760620117188	-611.44580078125	-1502.911376953125	1122.28271484375	-557.73779296875	-1367.708984375	888.4501342773438	-569.3013916015625	-1401.540649414062	877.71484375	-645.7290649414062	-1426.486083984375	1023.8544921875	-629.9507446289062	-1385.220703125	693.0503540039062	-585.15673828125	-1394.814819335938	787.8087768554688	-645.8148803710938	-1395.025756835938	1454.262084960938	-164.8819427490234	-1421.11083984375	1392.677368164062	-96.79418182373047	-1460.68603515625	1114.628173828125	-51.33668899536133	-1499.620971679688	1111.408325195312	-138.6214141845703	-1341.83740234375	892.5589599609375	-111.3855590820312	-1389.146484375	880.0249633789062	-40.94726943969727	-1437.186157226562	1043.840087890625	-41.93009567260742	-1337.044677734375	696.0722045898438	-114.2220611572266	-1308.54296875	768.606201171875	-98.63026428222656	-1357.57080078125	771.1507568359375	-44.97864151000977	-1417.982543945312	1631.731811523438	-289.2076721191406	-1217.602172851562	1692.87841796875	-378.3718566894531	-1221.1552734375	1692.898315429688	-278.6285705566406	-1368.908935546875	1641.565307617188	-419.9982299804688	-1394.604736328125	968.9812622070312	-514.783935546875	-1459.117065429688	975.5665893554688	-153.6211090087891	-1354.208129882812	1014.72509765625	-177.6539459228516	-1307.253173828125	1005.205444335938	-447.9590454101562	-1203.662475585938	518.6087036132812	-435.6417236328125	-1259.858154296875	649.8731689453125	-478.6780700683594	-1279.3134765625	39.63487243652344	-416.8623962402344	-1239.22314453125	284.5436096191406	-435.9324645996094	-1068.015014648438	44.89152526855469	-350.7702941894531	-1138.708740234375	39.99652481079102	-310.1906433105469	-1152.147094726562	38.73127365112305	-427.3112182617188	-1342.828002929688	48.54480743408203	-367.985595703125	-1539.748413085938	500.517578125	-182.5654144287109	-1442.623413085938	751.6136474609375	-143.0527038574219	-1875.564453125	119.8631973266602	-238.2532348632812	-1594.067260742188	390.0653076171875	-201.4178771972656	-1700.143310546875	45.38500595092773	-273.3994750976562	-1735.419555664062	62.82011795043945	-315.6786193847656	-1794.146728515625	49.70245742797852	-210.4582061767578	-1912.732055664062	170.3312835693359	-297.3359985351562	-1347.811279296875	785.3692016601562	-595.7275390625	
